<svg xmlns="http://www.w3.org/2000/svg" viewBox="0 0 32 32">
  <rect width="32" height="32" rx="6" fill="#3c3c3c"/>
  <g fill="none" stroke-width="5">
    <circle cx="16" cy="16" r="9" stroke="#F4AFAF" stroke-dasharray="5.31 51.24" transform="rotate(-105 16 16)"/>
    <circle cx="16" cy="16" r="9" stroke="#F4D1AF" stroke-dasharray="5.31 51.24" transform="rotate(-75 16 16)"/>
    <circle cx="16" cy="16" r="9" stroke="#F4F4AF" stroke-dasharray="5.31 51.24" transform="rotate(-45 16 16)"/>
    <circle cx="16" cy="16" r="9" stroke="#D1F4AF" stroke-dasharray="5.31 51.24" transform="rotate(-15 16 16)"/>
    <circle cx="16" cy="16" r="9" stroke="#AFF4AF" stroke-dasharray="5.31 51.24" transform="rotate(15 16 16)"/>
    <circle cx="16" cy="16" r="9" stroke="#AFF4D1" stroke-dasharray="5.31 51.24" transform="rotate(45 16 16)"/>
    <circle cx="16" cy="16" r="9" stroke="#AFF4F4" stroke-dasharray="5.31 51.24" transform="rotate(75 16 16)"/>
    <circle cx="16" cy="16" r="9" stroke="#AFD1F4" stroke-dasharray="5.31 51.24" transform="rotate(105 16 16)"/>
    <circle cx="16" cy="16" r="9" stroke="#AFAFF4" stroke-dasharray="5.31 51.24" transform="rotate(135 16 16)"/>
    <circle cx="16" cy="16" r="9" stroke="#D1AFF4" stroke-dasharray="5.31 51.24" transform="rotate(165 16 16)"/>
    <circle cx="16" cy="16" r="9" stroke="#F4AFF4" stroke-dasharray="5.31 51.24" transform="rotate(195 16 16)"/>
    <circle cx="16" cy="16" r="9" stroke="#F4AFD1" stroke-dasharray="5.31 51.24" transform="rotate(225 16 16)"/>
  </g>
</svg>
